<?xml version="1.0" encoding="utf-8"?><svg viewBox="0 0 502.66 502.66" xmlns="http://www.w3.org/2000/svg" xmlns:xlink="http://www.w3.org/1999/xlink"><style>:root>svg{display:none}:root>svg:target{display:block}</style><svg viewBox="0 0 20 20" id="call" xmlns="http://www.w3.org/2000/svg"><path d="M16.167 12.38c-.672-.145-1.203.167-1.674.44-.482.28-1.398 1.023-1.923.833-2.689-1.107-5.218-3.46-6.313-6.16-.193-.537.547-1.459.826-1.946.27-.472.576-1.008.436-1.685-.126-.608-1.754-2.68-2.33-3.247-.38-.374-.768-.58-1.168-.613C2.521-.062.844 1.941.55 2.42c-.736 1.022-.732 2.382.013 4.03 1.795 4.429 8.585 11.112 13.03 12.975.82.383 1.57.575 2.245.575.659 0 1.246-.183 1.75-.548.381-.22 2.467-1.98 2.412-3.521-.033-.393-.238-.786-.608-1.167-.562-.58-2.62-2.257-3.224-2.384z"/></svg><svg viewBox="0 0 502.664 502.664" id="icon" xmlns="http://www.w3.org/2000/svg"><path d="M153.821 358.226L0 274.337v-46.463l153.821-83.414v54.574L46.636 250.523l107.185 53.431v54.272zm26.273 29.358L282.103 115.08h32.227L212.084 387.584h-31.99zm168.749-29.358v-54.272l107.164-52.999-107.164-52.59v-53.927l153.821 83.522v46.183l-153.821 84.083z"/></svg><svg class="csocial__svg" viewBox="0 0 29.7 29.7" id="insta"><path d="M15 11.014a3.986 3.986 0 10.001 7.971A3.986 3.986 0 0015 11.014zm0 6.592A2.604 2.604 0 0112.393 15 2.604 2.604 0 0115 12.394 2.614 2.614 0 0117.607 15 2.604 2.604 0 0115 17.606zm4.385-8.05a.915.915 0 00-.92.921c0 .512.407.919.92.919a.914.914 0 00.921-.919.916.916 0 00-.921-.921z"/><path d="M15.002.15C6.798.15.149 6.797.149 15c0 8.201 6.649 14.85 14.853 14.85 8.199 0 14.85-6.648 14.85-14.85 0-8.203-6.651-14.85-14.85-14.85zm7.664 18.115c0 2.423-1.979 4.401-4.416 4.401h-6.5c-2.438 0-4.417-1.979-4.417-4.386v-6.546c0-2.422 1.978-4.4 4.417-4.4h6.5c2.438 0 4.416 1.978 4.416 4.4v6.531z"/></svg><svg viewBox="0 0 98.62 98.62" id="mail"><path d="M49.312 0C22.078 0 0 22.078 0 49.312c0 27.234 22.078 49.312 49.312 49.312 27.234 0 49.312-22.078 49.312-49.312C98.624 22.078 76.546 0 49.312 0zm29.499 28.881c.022 0 .041.012.063.013L51.357 56.411c-.917.917-2.541.919-3.458-.002L20.371 28.881h58.44zm-60.359 1.841c0-.015.008-.027.008-.041l18.705 18.705-18.713 18.713V30.722zm1.841 39.535c-.085 0-.158-.037-.24-.048L39.02 51.242l7.023 7.023a5.034 5.034 0 003.585 1.48 5.038 5.038 0 003.584-1.48l6.796-6.796 18.788 18.788H20.293zm60.359-1.855L61.864 49.614l18.788-18.787v37.575z"/></svg><svg class="esocial__svg" viewBox="0 0 60 60" id="telega"><path d="M30 0C13.4 0 0 13.4 0 30s13.4 30 30 30 30-13.4 30-30S46.6 0 30 0zm16.9 13.9l-6.7 31.5c-.1.6-.8.9-1.4.6l-10.3-6.9-5.5 5.2c-.5.4-1.2.2-1.4-.4L18 32.7l-9.5-3.9c-.7-.3-.7-1.5 0-1.8l37.1-14.1c.7-.2 1.4.3 1.3 1z"/><path d="M22.7 40.6l.6-5.8 16.8-16.3-20.2 13.3"/></svg></svg>